<svg width="1455" height="488" viewBox="0 0 1455 488" fill="none" xmlns="http://www.w3.org/2000/svg">
<path d="M44.3444 476.8C193.413 261.955 608.758 247.724 610.922 36.8047C517.959 119.581 460.561 146.407 333.552 184.421C299.816 234.216 269.318 175.958 329.008 174.064C433.992 130.89 538.976 87.7169 582.633 28.6293C457.972 40.0876 385.55 46.7443 275.11 30.5553C220.938 261.82 -20.3045 268.429 44.3444 476.8Z" fill="url(#paint0_linear_205_960)"/>
<path d="M557.349 326.681L537.131 184.866C417.079 272.526 303.431 286.564 204.532 369.885L274.466 466.423C328.211 347.742 492.038 319.514 557.349 326.681Z" fill="url(#paint1_linear_205_960)"/>
<path d="M1384.16 152.568C1384.73 151.996 1386.3 148.28 1388.88 141.421C1402.31 141.421 1420.32 145.422 1442.9 153.425C1435.75 177.149 1430.04 202.017 1425.75 228.027C1421.46 253.752 1419.32 272.188 1419.32 283.335C1419.32 294.197 1420.46 299.628 1422.75 299.628C1424.46 299.628 1430.75 296.912 1441.61 291.481L1446.76 288.909L1454.47 303.915C1451.9 306.202 1448.47 309.06 1444.18 312.49C1440.18 315.92 1432.47 320.636 1421.03 326.639C1409.6 332.355 1399.31 335.214 1390.16 335.214C1372.44 335.214 1362.15 327.21 1359.29 311.204C1341 327.21 1324.42 335.214 1309.56 335.214C1294.98 335.214 1282.55 329.497 1272.26 318.064C1262.25 306.63 1257.25 288.623 1257.25 264.042C1257.25 225.74 1265.11 195.585 1280.83 173.576C1296.55 151.282 1315.56 140.134 1337.86 140.134C1353.86 140.134 1369.3 144.279 1384.16 152.568ZM1335.28 298.77C1342.14 298.77 1349.86 296.055 1358.44 290.624C1360.44 250.322 1367.15 210.449 1378.59 171.004C1370.01 167.288 1362.72 165.43 1356.72 165.43C1346.43 165.43 1337.57 175.577 1330.14 195.871C1322.99 215.879 1319.42 238.031 1319.42 262.327C1319.42 286.622 1324.71 298.77 1335.28 298.77Z" fill="#333333"/>
<path d="M1083.43 255.896C1083.43 220.167 1094.15 192.013 1115.59 171.433C1137.31 150.567 1161.89 140.134 1189.33 140.134C1206.2 140.134 1220.06 144.279 1230.92 152.568C1241.78 160.857 1247.21 172.004 1247.21 186.01C1247.21 199.73 1243.64 211.306 1236.49 220.738C1229.63 230.171 1221.2 237.46 1211.2 242.604C1190.9 252.609 1172.33 258.897 1155.46 261.469L1145.17 262.756C1147.17 289.624 1158.18 303.058 1178.18 303.058C1185.04 303.058 1192.33 301.343 1200.05 297.913C1207.77 294.483 1213.77 291.053 1218.06 287.623L1224.49 282.478L1234.78 296.198C1232.49 299.342 1227.92 303.486 1221.06 308.631C1214.2 313.776 1207.77 318.064 1201.77 321.494C1185.19 330.64 1167.04 335.214 1147.32 335.214C1127.59 335.214 1112.02 328.211 1100.58 314.205C1089.15 300.199 1083.43 280.763 1083.43 255.896ZM1144.74 241.747C1159.32 239.175 1170.9 233.029 1179.47 223.311C1188.05 213.593 1192.33 201.016 1192.33 185.581C1192.33 170.146 1187.76 162.429 1178.61 162.429C1167.75 162.429 1159.32 171.719 1153.32 190.298C1147.6 208.591 1144.74 225.74 1144.74 241.747Z" fill="#333333"/>
<path d="M1073.16 303.915C1048.87 324.78 1027.43 335.213 1008.85 335.213C990.557 335.213 979.982 326.067 977.123 307.773C968.548 316.348 958.973 323.065 948.397 327.924C937.822 332.784 928.532 335.213 920.529 335.213C906.809 335.213 895.09 329.211 885.372 317.206C875.654 305.201 870.794 286.622 870.794 261.469C870.794 223.739 878.798 194.156 894.804 172.719C910.811 150.995 928.818 140.134 948.826 140.134C969.12 140.134 986.127 144.707 999.847 153.854C1008.71 107.549 1013.14 71.1058 1013.14 44.5236L1010.99 26.5163C1032.43 19.0847 1053.44 15.3689 1074.02 15.3689C1076.31 20.228 1077.45 25.8017 1077.45 32.09C1077.45 52.9556 1071.16 95.4014 1058.59 159.427C1046.01 223.168 1039.72 266.471 1039.72 289.337C1039.72 296.197 1041.29 299.627 1044.44 299.627C1046.15 299.627 1051.58 296.912 1060.73 291.481L1065.02 288.909L1073.16 303.915ZM969.835 165.43C959.831 165.43 951.113 175.291 943.681 195.013C936.535 214.736 932.963 234.315 932.963 253.751C932.963 272.902 934.249 285.193 936.821 290.624C939.68 296.054 943.824 298.77 949.255 298.77C958.687 298.77 967.977 294.911 977.123 287.194C977.981 275.76 984.412 237.745 996.417 173.147C986.699 168.002 977.838 165.43 969.835 165.43Z" fill="#333333"/>
<path d="M841.87 166.716C841.87 178.721 838.011 199.443 830.294 228.884C822.576 258.039 818.718 277.189 818.718 286.336C818.718 295.197 820.004 299.627 822.576 299.627C824.291 299.627 830.866 296.912 842.299 291.481L847.444 288.908L854.732 303.914C852.16 306.201 848.73 309.059 844.442 312.489C840.155 315.919 832.152 320.635 820.433 326.638C808.714 332.354 797.852 335.213 787.848 335.213C777.844 335.213 769.984 332.212 764.267 326.209C758.55 319.921 755.692 311.632 755.692 301.342C755.692 290.766 759.265 272.187 766.411 245.605C773.557 218.737 777.129 201.301 777.129 193.298C777.129 181.293 773.414 170.003 765.982 159.427L762.123 154.282L762.552 148.708C777.701 144.421 802.282 142.277 836.296 142.277C840.012 146.565 841.87 154.711 841.87 166.716ZM792.993 95.544C787.276 89.8274 784.418 82.2529 784.418 72.8205C784.418 63.3881 788.277 55.099 795.994 47.9532C803.997 40.8075 813.144 37.2346 823.434 37.2346C833.724 37.2346 841.727 40.0929 847.444 45.8095C853.16 51.5261 856.019 59.1007 856.019 68.533C856.019 77.6796 851.874 85.8258 843.585 92.9715C835.582 100.117 826.578 103.69 816.574 103.69C806.57 103.69 798.71 100.975 792.993 95.544Z" fill="#333333"/>
<path d="M582.835 335.214C569.972 335.214 559.111 329.926 550.25 319.35C541.675 308.488 537.388 295.197 537.388 279.477C537.388 263.756 539.388 236.03 543.39 196.3C547.392 156.57 549.392 128.272 549.392 111.408C549.392 94.5444 547.535 81.3962 543.819 71.9637L526.24 39.3791L527.955 32.9479C551.107 28.0888 579.833 25.6592 614.133 25.6592C616.991 36.5208 618.421 53.2419 618.421 75.8225C618.421 98.4031 615.562 131.274 609.846 174.434C604.415 217.309 601.699 245.892 601.699 260.183C601.699 274.189 606.13 281.192 614.991 281.192C623.851 281.192 635.142 273.617 648.861 258.468C662.867 243.319 676.158 223.454 688.735 198.872C701.311 174.005 709.029 150.138 711.887 127.272L666.44 100.69C668.727 78.9666 674.015 61.6739 682.304 48.8115C689.735 37.3783 695.881 30.0896 700.74 26.9455L703.741 24.8018C721.177 24.8018 734.325 29.375 743.185 38.5216C752.332 47.6682 756.905 58.5297 756.905 71.1063C756.905 102.262 747.616 138.705 729.037 180.436C710.458 222.168 687.306 258.468 659.58 289.338C631.855 319.922 606.273 335.214 582.835 335.214Z" fill="#333333"/>
<defs>
<linearGradient id="paint0_linear_205_960" x1="303.769" y1="27.921" x2="205.194" y2="462.119" gradientUnits="userSpaceOnUse">
<stop stop-color="#1E7898"/>
<stop offset="1" stop-color="#034861"/>
</linearGradient>
<linearGradient id="paint1_linear_205_960" x1="306.688" y1="290.123" x2="579.238" y2="392.742" gradientUnits="userSpaceOnUse">
<stop stop-color="#F6AE3E"/>
<stop offset="1" stop-color="#CB9E57"/>
</linearGradient>
</defs>
</svg>
