<svg width="1024" height="1024" viewBox="0 0 1024 1024" fill="none" xmlns="http://www.w3.org/2000/svg">
<mask id="mask0_205_954" style="mask-type:alpha" maskUnits="userSpaceOnUse" x="0" y="0" width="1024" height="1024">
<rect width="1024" height="1024" fill="#274955"/>
</mask>
<g mask="url(#mask0_205_954)">
<path d="M59.8434 889.537C301.373 541.434 974.337 518.377 977.843 176.633C827.22 310.751 734.22 354.217 528.433 415.81C473.772 496.49 424.358 402.097 521.071 399.027C691.172 329.076 861.272 259.124 932.008 163.387C730.026 181.952 612.684 192.738 433.742 166.507C345.97 541.215 -44.9043 551.924 59.8434 889.537Z" fill="url(#paint0_linear_205_954)"/>
<path d="M891.04 646.306L858.281 416.529C663.767 558.561 479.628 581.306 319.386 716.308L432.698 872.724C519.777 680.43 785.219 634.693 891.04 646.306Z" fill="url(#paint1_linear_205_954)"/>
</g>
<defs>
<linearGradient id="paint0_linear_205_954" x1="480.178" y1="162.239" x2="320.461" y2="865.75" gradientUnits="userSpaceOnUse">
<stop stop-color="#1E7898"/>
<stop offset="1" stop-color="#034861"/>
</linearGradient>
<linearGradient id="paint1_linear_205_954" x1="484.905" y1="587.072" x2="926.506" y2="753.342" gradientUnits="userSpaceOnUse">
<stop stop-color="#F6AE3E"/>
<stop offset="1" stop-color="#CB9E57"/>
</linearGradient>
</defs>
</svg>
